<svg width="24" height="24" xmlns="http://www.w3.org/2000/svg">

 <g>
  <title>background</title>
  <rect fill="none" id="canvas_background" height="402" width="582" y="-1" x="-1"/>
 </g>
 <g>
  <title>Layer 1</title>
  <path fill="#666666" id="svg_1" d="m10.895,16.553l-4,-8c-0.339,-0.678 -1.45,-0.678 -1.789,0l-4,8c-0.247,0.494 -0.047,1.095 0.447,1.342c0.495,0.248 1.095,0.046 1.342,-0.447l0.723,-1.448l4.764,0l0.724,1.447c0.175,0.351 0.528,0.553 0.895,0.553c0.15,0 0.303,-0.034 0.446,-0.105c0.494,-0.248 0.695,-0.848 0.448,-1.342zm-6.277,-2.553l1.382,-2.764l1.382,2.764l-2.764,0z"/>
  <path fill="#666666" id="svg_3" d="m22,18l-6,0c-0.379,0 -0.725,-0.214 -0.895,-0.553s-0.132,-0.744 0.095,-1.047l4.8,-6.4l-4,0c-0.552,0 -1,-0.448 -1,-1s0.448,-1 1,-1l6,0c0.379,0 0.725,0.214 0.895,0.553s0.132,0.744 -0.095,1.047l-4.8,6.4l4,0c0.552,0 1,0.448 1,1s-0.448,1 -1,1z"/>
  <path fill="#666666" id="svg_5" d="m14,14l-2,0c-0.552,0 -1,-0.448 -1,-1s0.448,-1 1,-1l2,0c0.552,0 1,0.448 1,1s-0.448,1 -1,1z"/>
 </g>
</svg>