<svg width="28" height="28" xmlns="http://www.w3.org/2000/svg">

 <g>
  <title>background</title>
  <rect fill="none" id="canvas_background" height="402" width="582" y="-1" x="-1"/>
 </g>
 <g>
  <title>Layer 1</title>
  <path id="svg_1" fill-rule="evenodd" fill="#666666" d="m4.40675,7.25l-1.40675,0c-0.55228,0 -1,-0.44772 -1,-1c0,-0.55228 0.44772,-1 1,-1l1.40675,0c0.42178,-1.30563 1.64723,-2.25 3.09325,-2.25c1.44602,0 2.6715,0.94437 3.0933,2.25l14.4067,0c0.5523,0 1,0.44772 1,1c0,0.55228 -0.4477,1 -1,1l-14.4067,0c-0.4218,1.30563 -1.64728,2.25 -3.0933,2.25c-1.44602,0 -2.67147,-0.94437 -3.09325,-2.25zm1.34325,-1c0,-0.9665 0.7835,-1.75 1.75,-1.75c0.9665,0 1.75,0.7835 1.75,1.75c0,0.9665 -0.7835,1.75 -1.75,1.75c-0.9665,0 -1.75,-0.7835 -1.75,-1.75z" clip-rule="evenodd"/>
  <path stroke="#666666" stroke-opacity="0" id="svg_2" fill-rule="evenodd" fill="#666666" d="m3,15.25l14.4458,0c0.4218,1.3056 1.6472,2.25 3.0933,2.25c1.446,0 2.6714,-0.9444 3.0932,-2.25l1.3677,0c0.5523,0 1,-0.4477 1,-1c0,-0.5523 -0.4477,-1 -1,-1l-1.3677,0c-0.4218,-1.3056 -1.6472,-2.25 -3.0932,-2.25c-1.4461,0 -2.6715,0.9444 -3.0933,2.25l-14.4458,0c-0.55228,0 -1,0.4477 -1,1c0,0.5523 0.44772,1 1,1zm17.5391,-2.75c-0.9665,0 -1.75,0.7835 -1.75,1.75c0,0.9665 0.7835,1.75 1.75,1.75c0.9665,0 1.75,-0.7835 1.75,-1.75c0,-0.9665 -0.7835,-1.75 -1.75,-1.75z" clip-rule="evenodd"/>
  <path id="svg_3" fill-rule="evenodd" fill="#666666" d="m10.4067,23.25l-7.4067,0c-0.55228,0 -1,-0.4477 -1,-1c0,-0.5523 0.44772,-1 1,-1l7.4067,0c0.4218,-1.3056 1.6473,-2.25 3.0933,-2.25c1.446,0 2.6715,0.9444 3.0933,2.25l8.4067,0c0.5523,0 1,0.4477 1,1c0,0.5523 -0.4477,1 -1,1l-8.4067,0c-0.4218,1.3056 -1.6473,2.25 -3.0933,2.25c-1.446,0 -2.6715,-0.9444 -3.0933,-2.25zm1.3433,-1c0,-0.9665 0.7835,-1.75 1.75,-1.75c0.9665,0 1.75,0.7835 1.75,1.75c0,0.9665 -0.7835,1.75 -1.75,1.75c-0.9665,0 -1.75,-0.7835 -1.75,-1.75z" clip-rule="evenodd"/>
 </g>
</svg>