<svg width="32" height="32" xmlns="http://www.w3.org/2000/svg">

 <g>
  <title>background</title>
  <rect fill="none" id="canvas_background" height="402" width="582" y="-1" x="-1"/>
 </g>
 <g>
  <title>Layer 1</title>
  <path id="svg_4" fill="#1b1b1b" d="m26.5,3l-5.958,0l0,1l5.958,0c0.276,0 0.5,0.225 0.5,0.5l0,25c0,0.275 -0.224,0.5 -0.5,0.5l-21,0c-0.276,0 -0.5,-0.225 -0.5,-0.5l0,-25c0,-0.275 0.224,-0.5 0.5,-0.5l6,0l0,-1l-6,0c-0.827,0 -1.5,0.673 -1.5,1.5l0,25c0,0.827 0.673,1.5 1.5,1.5l21,0c0.827,0 1.5,-0.673 1.5,-1.5l0,-25c0,-0.827 -0.673,-1.5 -1.5,-1.5z"/>
  <path id="svg_6" fill="#1b1b1b" d="m25.5,22c-0.276,0 -0.5,-0.224 -0.5,-0.5l0,-15.5l-2.5,0c-0.276,0 -0.5,-0.224 -0.5,-0.5s0.224,-0.5 0.5,-0.5l3,0c0.276,0 0.5,0.224 0.5,0.5l0,16c0,0.276 -0.224,0.5 -0.5,0.5z"/>
  <path id="svg_8" fill="#1b1b1b" d="m20.5,29l-14,0c-0.276,0 -0.5,-0.224 -0.5,-0.5l0,-23c0,-0.276 0.224,-0.5 0.5,-0.5l3,0c0.276,0 0.5,0.224 0.5,0.5s-0.224,0.5 -0.5,0.5l-2.5,0l0,22l13.5,0c0.276,0 0.5,0.224 0.5,0.5s-0.224,0.5 -0.5,0.5z"/>
  <path id="svg_10" fill="#1b1b1b" d="m20.5,29c-0.064,0 -0.129,-0.013 -0.191,-0.038c-0.187,-0.077 -0.309,-0.26 -0.309,-0.462l0,-5c0,-0.276 0.224,-0.5 0.5,-0.5l5,0c0.202,0 0.385,0.122 0.462,0.309c0.078,0.187 0.035,0.402 -0.108,0.545l-5,5c-0.096,0.095 -0.224,0.146 -0.354,0.146zm0.5,-5l0,3.293l3.293,-3.293l-3.293,0z"/>
  <path id="svg_13" fill="#ffcc00" d="m9.653,18.016c-0.004,0 -0.007,0 -0.011,0c-0.142,-0.003 -0.276,-0.066 -0.368,-0.174l-1.153,-1.346c-0.18,-0.209 -0.156,-0.525 0.054,-0.705c0.21,-0.18 0.526,-0.154 0.705,0.055l0.791,0.922l1.59,-1.693c0.189,-0.201 0.505,-0.211 0.707,-0.021s0.211,0.506 0.022,0.707l-1.972,2.099c-0.095,0.099 -0.227,0.156 -0.365,0.156z"/>
  <path id="svg_16" fill="#ffcc00" d="m9.653,13.016c-0.004,0 -0.007,0 -0.011,0c-0.142,-0.003 -0.276,-0.066 -0.368,-0.174l-1.153,-1.346c-0.18,-0.209 -0.156,-0.525 0.054,-0.705c0.21,-0.18 0.526,-0.154 0.705,0.055l0.791,0.922l1.59,-1.693c0.189,-0.201 0.505,-0.211 0.707,-0.021s0.211,0.506 0.022,0.707l-1.972,2.099c-0.095,0.099 -0.227,0.156 -0.365,0.156z"/>
  <path id="svg_19" fill="#1b1b1b" d="m17.5,23l-4,0c-0.276,0 -0.5,-0.224 -0.5,-0.5s0.224,-0.5 0.5,-0.5l4,0c0.276,0 0.5,0.224 0.5,0.5s-0.224,0.5 -0.5,0.5z"/>
  <path id="svg_22" fill="#1b1b1b" d="m22.5,21l-9,0c-0.276,0 -0.5,-0.224 -0.5,-0.5s0.224,-0.5 0.5,-0.5l9,0c0.276,0 0.5,0.224 0.5,0.5s-0.224,0.5 -0.5,0.5z"/>
  <path id="svg_25" fill="#1b1b1b" d="m22.5,16l-3,0c-0.276,0 -0.5,-0.224 -0.5,-0.5s0.224,-0.5 0.5,-0.5l3,0c0.276,0 0.5,0.224 0.5,0.5s-0.224,0.5 -0.5,0.5z"/>
  <path id="svg_28" fill="#1b1b1b" d="m20.5,18l-7,0c-0.276,0 -0.5,-0.224 -0.5,-0.5s0.224,-0.5 0.5,-0.5l7,0c0.276,0 0.5,0.224 0.5,0.5s-0.224,0.5 -0.5,0.5z"/>
  <path id="svg_31" fill="#1b1b1b" d="m17.5,16l-4,0c-0.276,0 -0.5,-0.224 -0.5,-0.5s0.224,-0.5 0.5,-0.5l4,0c0.276,0 0.5,0.224 0.5,0.5s-0.224,0.5 -0.5,0.5z"/>
  <path id="svg_34" fill="#1b1b1b" d="m22.5,11l-9,0c-0.276,0 -0.5,-0.224 -0.5,-0.5s0.224,-0.5 0.5,-0.5l9,0c0.276,0 0.5,0.224 0.5,0.5s-0.224,0.5 -0.5,0.5z"/>
  <path id="svg_37" fill="#1b1b1b" d="m18.5,13l-5,0c-0.276,0 -0.5,-0.224 -0.5,-0.5s0.224,-0.5 0.5,-0.5l5,0c0.276,0 0.5,0.224 0.5,0.5s-0.224,0.5 -0.5,0.5z"/>
  <path id="svg_40" fill="#1b1b1b" d="m10.92328,22.929453l-2,0c-0.276,0 -0.5,-0.224 -0.5,-0.5l0,-2c0,-0.276 0.224,-0.5 0.5,-0.5l2,0c0.276,0 0.5,0.224 0.5,0.5l0,2c0,0.276 -0.224,0.5 -0.5,0.5zm-1.5,-1l1,0l0,-1l-1,0l0,1z"/>
  <path id="svg_42" fill="#1b1b1b" d="m20.5,7l-9,0c-0.276,0 -0.5,-0.224 -0.5,-0.5l0,-3c0,-0.827 0.673,-1.5 1.5,-1.5c0.276,0 0.5,0.224 0.5,0.5s-0.224,0.5 -0.5,0.5c-0.276,0 -0.5,0.225 -0.5,0.5l0,2.5l8,0l0,-2.5c0,-0.275 -0.224,-0.5 -0.5,-0.5c-0.276,0 -0.5,-0.224 -0.5,-0.5s0.224,-0.5 0.5,-0.5c0.827,0 1.5,0.673 1.5,1.5l0,3c0,0.276 -0.224,0.5 -0.5,0.5z"/>
  <path id="svg_44" fill="#1b1b1b" d="m17.5,3c-0.276,0 -0.5,-0.224 -0.5,-0.5c0,-0.275 -0.224,-0.5 -0.5,-0.5l-1,0c-0.108,0 -0.211,0.033 -0.296,0.097c-0.13,0.095 -0.204,0.242 -0.204,0.403c0,0.276 -0.224,0.5 -0.5,0.5s-0.5,-0.224 -0.5,-0.5c0,-0.475 0.228,-0.926 0.609,-1.207c0.258,-0.191 0.567,-0.293 0.891,-0.293l1,0c0.827,0 1.5,0.673 1.5,1.5c0,0.276 -0.224,0.5 -0.5,0.5z"/>
 </g>
</svg>